name D:\school\WTK\thesis\model\3dpredictsim\Results\batch_windlass\Pog_s1_tmt_bCst_d05_k500_WL30_ig24_act_TTC.mot
datacolumns 128
datarows 4
range 1.73961917 1.77441156
endheader
time	pelvis_tilt	pelvis_list	pelvis_rotation	pelvis_tx	pelvis_ty	pelvis_tz	hip_flexion_l	hip_adduction_l	hip_rotation_l	hip_flexion_r	hip_adduction_r	hip_rotation_r	knee_angle_l	knee_angle_r	ankle_angle_l	ankle_angle_r	subtalar_angle_l	subtalar_angle_r	tmt_angle_l	tmt_angle_r	mtp_angle_l	mtp_angle_r	lumbar_extension	lumbar_bending	lumbar_rotation	arm_flex_l	arm_add_l	arm_rot_l	arm_flex_r	arm_add_r	arm_rot_r	elbow_flex_l	elbow_flex_r	pro_sup_l	pro_sup_r	glut_med1_l/activation	glut_med2_l/activation	glut_med3_l/activation	glut_min1_l/activation	glut_min2_l/activation	glut_min3_l/activation	semimem_l/activation	semiten_l/activation	bifemlh_l/activation	bifemsh_l/activation	sar_l/activation	add_long_l/activation	add_brev_l/activation	add_mag1_l/activation	add_mag2_l/activation	add_mag3_l/activation	tfl_l/activation	pect_l/activation	grac_l/activation	glut_max1_l/activation	glut_max2_l/activation	glut_max3_l/activation	iliacus_l/activation	psoas_l/activation	quad_fem_l/activation	gem_l/activation	peri_l/activation	rect_fem_l/activation	vas_med_l/activation	vas_int_l/activation	vas_lat_l/activation	med_gas_l/activation	lat_gas_l/activation	soleus_l/activation	tib_post_l/activation	flex_dig_l/activation	flex_hal_l/activation	tib_ant_l/activation	per_brev_l/activation	per_long_l/activation	per_tert_l/activation	ext_dig_l/activation	ext_hal_l/activation	ercspn_l/activation	intobl_l/activation	extobl_l/activation	glut_med1_r/activation	glut_med2_r/activation	glut_med3_r/activation	glut_min1_r/activation	glut_min2_r/activation	glut_min3_r/activation	semimem_r/activation	semiten_r/activation	bifemlh_r/activation	bifemsh_r/activation	sar_r/activation	add_long_r/activation	add_brev_r/activation	add_mag1_r/activation	add_mag2_r/activation	add_mag3_r/activation	tfl_r/activation	pect_r/activation	grac_r/activation	glut_max1_r/activation	glut_max2_r/activation	glut_max3_r/activation	iliacus_r/activation	psoas_r/activation	quad_fem_r/activation	gem_r/activation	peri_r/activation	rect_fem_r/activation	vas_med_r/activation	vas_int_r/activation	vas_lat_r/activation	med_gas_r/activation	lat_gas_r/activation	soleus_r/activation	tib_post_r/activation	flex_dig_r/activation	flex_hal_r/activation	tib_ant_r/activation	per_brev_r/activation	per_long_r/activation	per_tert_r/activation	ext_dig_r/activation	ext_hal_r/activation	ercspn_r/activation	intobl_r/activation	extobl_r/activation	
          1.73961917	         -2.92999674	          0.67555512	         -7.70171344	          2.17452396	          0.85985164	          0.00216420	         32.74588238	         -0.58250829	         -3.37480412	        -15.16376664	         -2.15435129	          6.54317594	        -20.78758349	        -16.13054010	          3.16607788	         -5.54441596	          6.88027762	         17.67547758	          0.05671530	         -9.64977803	          0.01206229	         33.96027416	          0.51052796	          1.93338967	          2.27814082	        -12.74866280	        -13.51493119	          9.11676090	          3.16639576	        -13.48616488	         15.75894922	         18.54146276	         39.85941963	         86.51662706	         86.51662706	          0.05000114	          0.05001782	          0.07425668	          0.05510494	          0.05003020	          0.05000821	          0.07120064	          0.07032657	          0.14057198	          0.05073966	          0.06093539	          0.07343906	          0.09468792	          0.12350722	          0.13096640	          0.11759227	          0.05000210	          0.05001150	          0.07212895	          0.05001787	          0.05000696	          0.11990572	          0.07744784	          0.07843927	          0.16200234	          0.05367278	          0.07237722	          0.05000107	          0.05897125	          0.06894630	          0.05524713	          0.07119719	          0.07119717	          0.07119710	          0.05966445	          0.05002432	          0.07119248	          0.47889715	          0.21441132	          0.15403956	          0.15303766	          0.51025001	          0.11422417	          0.05000040	          0.13918881	          0.12475212	          0.15599604	          0.08274082	          0.06020397	          0.19012538	          0.14021741	          0.10137798	          0.05000411	          0.05000049	          0.05000046	          0.05000276	          0.09770958	          0.09588777	          0.05000076	          0.05000089	          0.05000177	          0.05000080	          0.18376588	          0.05009923	          0.05000503	          0.05001064	          0.05000406	          0.05000158	          0.33185779	          0.48452171	          0.05004034	          0.05022650	          0.05966641	          0.21409722	          0.08037345	          0.11272381	          0.12033661	          0.14976812	          0.21332030	          0.05000005	          0.13522846	          0.13754849	          0.15674337	          0.16165942	          0.41994251	          0.34732587	          0.30218983	          0.33236728	          0.05000033	          0.05000006	          0.05000008	          0.05000012	
          1.75121663	         -2.92441171	          0.58344472	         -7.86085856	          2.19288886	          0.85887519	          0.00187024	         32.23672318	         -0.42107251	         -3.21243986	        -15.48482610	         -2.34668135	          6.33143161	        -20.29501219	        -17.01102812	          2.75120067	         -8.01305588	          6.54443737	         18.09494869	         -0.01219096	        -10.41835422	          0.24033752	         35.11144067	          0.73162388	          1.78805004	          2.36518804	        -14.07640092	        -13.49430001	          9.07156338	          2.87822421	        -13.52981777	         16.13817087	         18.57494816	         40.82041779	         86.51662706	         86.51662706	          0.05968086	          0.05000240	          0.11908691	          0.05000266	          0.05000292	          0.05000575	          0.05966756	          0.05966879	          0.11780207	          0.05001353	          0.05106538	          0.06156633	          0.11298555	          0.16726218	          0.16606976	          0.13400210	          0.05000079	          0.05510058	          0.06521532	          0.05000425	          0.05023244	          0.14091604	          0.06490279	          0.06573365	          0.15054672	          0.05000835	          0.06446922	          0.05000028	          0.14468054	          0.14547748	          0.12392542	          0.05966459	          0.05966461	          0.05966455	          0.05000026	          0.05435242	          0.05966428	          0.53222144	          0.22509750	          0.14420997	          0.28187806	          0.54726337	          0.16582350	          0.05000007	          0.11664283	          0.10454460	          0.13072772	          0.06933872	          0.05045249	          0.15932876	          0.11750501	          0.08495711	          0.05000380	          0.05000047	          0.05000056	          0.05000025	          0.08188274	          0.17612320	          0.10730702	          0.05425618	          0.05004350	          0.05001333	          0.15399935	          0.05000480	          0.05000207	          0.05003936	          0.05008245	          0.05966484	          0.27810306	          0.40603835	          0.08314735	          0.05000260	          0.05000214	          0.17941746	          0.06735523	          0.09569021	          0.11499355	          0.12550847	          0.17876638	          0.05000002	          0.11332397	          0.11526828	          0.13135390	          0.32941782	          0.41076448	          0.32319916	          0.60646036	          0.48224198	          0.22333043	          0.05000004	          0.05435003	          0.05928081	
          1.76281409	         -2.91192194	          0.49739919	         -7.98605683	          2.21144396	          0.85743670	          0.00157434	         31.64630058	         -0.22900660	         -3.00139197	        -15.63843548	         -2.51157162	          6.11323100	        -20.42100790	        -18.28648625	          2.27465562	        -10.22819479	          6.18001192	         18.45322187	         -0.07887913	        -10.76044934	          0.51424925	         35.07995289	          0.95872283	          1.61972756	          2.44160862	        -15.37764088	        -13.48767150	          9.10305929	          2.53210564	        -13.59397406	         16.46324926	         18.56514381	         41.77375606	         86.51662706	         86.51662706	          0.05001529	          0.06332453	          0.14814922	          0.05000065	          0.05000071	          0.05000637	          0.05000256	          0.05000377	          0.09872036	          0.05000018	          0.05000049	          0.05159404	          0.09468423	          0.22818025	          0.22792301	          0.14954385	          0.05966417	          0.05000205	          0.05465220	          0.05966481	          0.05966544	          0.16324830	          0.05438980	          0.05508610	          0.23106123	          0.05000148	          0.07246380	          0.07119768	          0.28987652	          0.27395016	          0.23655167	          0.05000005	          0.05000007	          0.05000000	          0.05000007	          0.05000065	          0.05000024	          0.66345678	          0.18863600	          0.12085071	          0.59429122	          0.59455704	          0.29280941	          0.05000002	          0.09774887	          0.08761032	          0.10955236	          0.05810764	          0.07119728	          0.13352065	          0.09847159	          0.07119713	          0.05957637	          0.05966585	          0.06786576	          0.05939339	          0.06861971	          0.20611000	          0.22485812	          0.28156876	          0.08662184	          0.10853281	          0.12905441	          0.05279543	          0.07119855	          0.05000423	          0.05000299	          0.05000765	          0.23305556	          0.34026774	          0.07451949	          0.07124425	          0.07119759	          0.15035517	          0.05644503	          0.08019038	          0.09636702	          0.10517843	          0.14980956	          0.05000002	          0.09496760	          0.09659707	          0.11007706	          0.48530939	          0.40398116	          0.30884902	          0.61419047	          0.55734079	          0.18715517	          0.05509755	          0.07119704	          0.06633575	
          1.77441156	         -2.89417391	          0.42498967	         -8.07567948	          2.23003392	          0.85557771	          0.00129273	         30.90534789	         -0.03195036	         -2.72301775	        -15.60001278	         -2.65349562	          5.90105358	        -21.14809858	        -20.00727179	          2.00126422	        -12.00004326	          5.77945450	         18.74506497	         -0.38790894	        -10.51872942	          0.74978392	         33.36116882	          1.17967072	          1.42353157	          2.50182673	        -16.61974794	        -13.50222614	          9.24764453	          2.14879732	        -13.66999547	         16.72851077	         18.49024381	         42.72084235	         86.51662706	         86.51662706	          0.21587328	          0.32837292	          0.51958521	          0.18542843	          0.06752624	          0.44923925	          0.06184424	          0.05000020	          0.08495831	          0.05000015	          0.05000159	          0.05966674	          0.07934749	          0.19121942	          0.19100396	          0.14706141	          0.05000051	          0.05967555	          0.05000215	          0.05000037	          0.05000081	          0.16893742	          0.05906552	          0.05000128	          0.19363373	          0.14672383	          0.33681841	          0.05966500	          0.29831768	          0.28912234	          0.25475676	          0.05966394	          0.05966405	          0.05966454	          0.10831296	          0.05000123	          0.05076742	          0.63063292	          0.15808051	          0.10127515	          0.49802722	          0.56425872	          0.24538046	          0.05000681	          0.08191542	          0.07341908	          0.21457153	          0.05966494	          0.05966480	          0.11189301	          0.08252136	          0.05966531	          0.05000260	          0.05000143	          0.05687308	          0.05000018	          0.05750519	          0.17272424	          0.21717854	          0.23596011	          0.07259270	          0.09095299	          0.10815019	          0.05609842	          0.05966745	          0.05966416	          0.05966529	          0.05966550	          0.19530497	          0.28909592	          0.06245040	          0.05970437	          0.05966498	          0.12600043	          0.10137988	          0.06720316	          0.08075838	          0.08814148	          0.12554321	          0.05000006	          0.07958463	          0.08095028	          0.09224669	          0.40669830	          0.36845063	          0.27596039	          0.51470328	          0.73922945	          0.42080174	          0.09012033	          0.05966447	          0.05965747	
